# xmcd CD database file
#
# Track frame offsets:
#	150
#	23637
#	43562
#	60052
#	87212
#	102375
#	124967
#	142097
#	174462
#	198707
#
# Disc length: 2860 seconds
#
# Revision: 0
# Processed by: cddbd v1.5.1PL0 Copyright (c) Steve Scherf et al.
# Submitted via: CD2WAV32(JP) R3.22
#
DISCID=840b2a0a
DTITLE=嘉門達夫 - ベストヒットコレクション
DYEAR=2005
DGENRE=J-POP(J)
TTITLE0=ハンバーガーショップ
TTITLE1=アホが見るブタのケツ2
TTITLE2=あったらコワイセレナーデ（スゴクこわいでバージョン）
TTITLE3=鼻から牛乳
TTITLE4=オーマイガー！！
TTITLE5=ジミー＆ハデー -宴篇-
TTITLE6=んなアホな！
TTITLE7=ひとりぼっちのクリスマス
TTITLE8=究極のマーフィーの法則
TTITLE9=哀歌～エレジー～
EXTD=
EXTT0=
EXTT1=
EXTT2=
EXTT3=
EXTT4=
EXTT5=
EXTT6=
EXTT7=
EXTT8=
EXTT9=
PLAYORDER=
